<svg version="1.1" id="Layer_1" xmlns="http://www.w3.org/2000/svg" xmlns:xlink="http://www.w3.org/1999/xlink" x="0px" y="0px" width="100%" viewBox="0 0 1024 608" enable-background="new 0 0 1024 608" xml:space="preserve">
    <path xmlns="http://www.w3.org/2000/svg" fill="#d30000" opacity="1.000000" stroke="none" d=" M362.567505,267.011505   C372.993347,266.820923 382.989868,266.805969 392.985474,266.703064   C396.320648,266.668732 397.329651,267.943268 396.700745,271.320923   C394.660614,282.277832 392.925201,293.291138 390.964203,304.263367   C390.505859,306.827942 390.667328,308.675049 393.853333,308.566895   C410.134949,308.014252 426.567444,310.469238 442.678497,306.742462   C454.976532,303.897736 464.305573,297.117950 467.719940,284.302979   C471.261749,271.009674 463.238831,258.682739 449.191681,255.560852   C445.802795,254.807678 442.263580,254.376114 438.795685,254.388931   C409.306702,254.497955 379.818359,254.802933 350.329407,254.876236   C346.515015,254.885727 344.979401,256.433197 344.382629,259.936432   C343.237061,266.661926 341.670013,273.320404 340.678528,280.065552   C340.110382,283.930481 338.105499,284.978271 334.596313,284.924927   C327.599091,284.818573 320.598267,284.869659 313.599945,284.948517   C309.993713,284.989166 308.421173,283.926697 309.362183,279.869720   C310.864502,273.392700 311.573242,266.728790 313.139008,260.270325   C314.201813,255.886276 312.525299,254.973053 308.683441,255.054825   C302.187347,255.193024 295.683533,254.971436 289.187744,255.116898   C285.541687,255.198532 283.901062,254.060333 284.693970,250.156799   C286.216766,242.659851 287.535950,235.121750 288.988312,227.610138   C289.443848,225.254089 290.653687,223.743820 293.373840,223.762085   C301.038757,223.813538 308.704956,223.800323 316.369568,223.714188   C320.363281,223.669312 320.607422,226.040161 320.054749,229.030045   C318.638947,236.690018 317.207886,244.347168 315.856903,251.607880   C317.497711,253.416199 319.088348,253.022919 320.532562,253.043442   C324.697845,253.102646 328.864563,253.053497 333.030670,253.068298   C344.624573,253.109497 344.616028,253.112289 346.601532,241.799271   C347.349152,237.539627 348.226105,233.301193 348.896729,229.029968   C349.466766,225.399475 351.013000,223.654831 355.111206,223.677383   C386.106537,223.847809 417.105865,223.552963 448.098083,223.911026   C465.632355,224.113602 481.660645,229.093018 494.042450,242.406906   C501.496338,250.421936 504.962402,260.113770 505.355072,271.033112   C505.482697,274.582611 504.311981,276.930573 501.351868,278.934845   C489.903442,286.686371 478.604919,294.658844 467.214447,302.496552   C456.909912,309.587006 450.095551,318.339294 452.857086,331.811829   C453.447540,334.692627 451.280853,335.030640 449.335144,335.600647   C441.434906,337.915039 433.286469,338.768097 425.140900,338.843445   C401.812469,339.059204 378.480743,338.951141 355.150421,338.909180   C348.580475,338.897369 348.416534,338.607117 349.565613,332.020752   C353.024414,312.195923 356.460236,292.366943 360.003662,272.557251   C360.338745,270.683655 360.245056,268.479889 362.567505,267.011505  z"/>
    <path xmlns="http://www.w3.org/2000/svg" fill="#d30000" opacity="1.000000" stroke="none" d=" M719.241211,316.792786   C724.438660,323.872925 730.233032,330.079315 734.669739,337.168182   C733.017090,339.243103 731.084717,338.930237 729.316589,338.936249   C717.151855,338.977722 704.985535,338.864563 692.822815,339.029602   C689.044128,339.080872 686.702515,337.670837 684.713074,334.487274   C680.123718,327.143188 675.096985,320.073578 670.442322,312.768646   C668.457520,309.653656 666.116577,308.234985 662.280762,308.304718   C650.286499,308.522797 638.283508,308.502899 626.288391,308.305176   C621.930237,308.233307 619.535034,309.324005 618.968567,314.162415   C618.157227,321.092133 616.557861,327.926727 615.425964,334.823395   C615.050720,337.109619 614.067444,338.675293 611.696533,338.735352   C600.914307,339.008392 590.119995,339.520203 579.641479,338.294128   C578.388000,336.463898 578.960205,335.022034 579.220276,333.561676   C582.048889,317.677704 584.891663,301.796112 587.651428,285.900116   C588.834961,279.082642 588.750732,279.025360 595.950073,279.021393   C624.612793,279.005707 653.275452,279.006012 681.938171,279.033691   C686.980164,279.038574 691.914612,278.762573 696.457031,276.181244   C701.626282,273.243683 704.382568,268.500458 703.636536,263.541687   C702.969849,259.110138 699.419617,256.174561 693.105408,255.179459   C689.994080,254.689102 686.819519,254.383392 683.672241,254.372467   C663.341980,254.301880 643.011292,254.349533 622.680847,254.313187   C620.730042,254.309708 618.686157,254.769470 616.191223,253.288620   C622.757507,244.664627 625.103210,235.274658 619.914429,225.365204   C621.571594,223.191940 623.540649,223.783875 625.261414,223.780823   C647.091614,223.741974 668.922546,223.662567 690.751892,223.804749   C700.091309,223.865585 709.364258,224.767136 718.272278,227.971115   C745.434021,237.740479 746.476868,261.826263 736.472107,279.859650   C731.243896,289.283417 723.100525,295.412384 713.179810,299.329651   C711.355530,300.049957 709.334290,300.402374 707.497131,302.325287   C711.335388,307.040192 715.186646,311.771118 719.241211,316.792786  z"/>
    <path xmlns="http://www.w3.org/2000/svg" fill="#d30000" opacity="1.000000" stroke="none" d=" M572.146484,332.859772   C571.869446,338.279785 568.539368,338.917542 564.492371,338.913513   C535.181580,338.884308 505.870605,338.973083 476.559967,338.906525   C467.340729,338.885590 461.898865,335.837128 460.089081,330.210754   C458.070068,323.933838 460.693909,316.327667 467.446808,311.401276   C478.878265,303.061737 490.572296,295.079620 502.217041,287.035706   C515.916321,277.572601 529.685791,268.211151 543.409363,258.783203   C544.891907,257.764709 546.272461,256.597778 547.999329,255.269775   C546.072510,253.805161 544.228271,254.297195 542.542725,254.291534   C533.050232,254.259598 523.557495,254.285873 514.065002,254.325455   C511.655182,254.335495 509.607880,254.222519 508.366180,251.460617   C503.505127,240.648254 495.795227,232.352844 485.513885,226.440491   C484.973938,226.129990 484.565033,225.591644 484.071198,225.137421   C485.224030,222.989243 487.103119,223.817047 488.574677,223.814423   C525.213196,223.748917 561.851746,223.749146 598.490356,223.733017   C605.250183,223.730042 611.760986,224.517502 614.732727,231.791412   C617.307190,238.092911 614.555908,245.838348 607.481079,250.991867   C595.104004,260.007751 582.433960,268.622650 569.851807,277.355469   C555.379639,287.400146 540.869690,297.390472 526.033020,307.641449   C527.890015,309.222443 529.735046,308.705322 531.379639,308.690063   C544.697388,308.566284 558.015320,308.410065 571.331421,308.169220   C575.070312,308.101593 576.408081,309.372589 575.572021,313.282654   C574.217102,319.619690 573.309143,326.052277 572.146484,332.859772  z"/>
</svg>